<svg id="Capa_1" enable-background="new 0 0 512 512" height="512" viewBox="0 0 512 512" width="512" xmlns="http://www.w3.org/2000/svg"><g><g><g><g><path d="m512 108.86v308.67c0 8.28-6.72 15-15 15h-190.76c-6.46 21.62-26.54 37.43-50.24 37.43s-43.78-15.81-50.24-37.43h-190.76c-8.28 0-15-6.72-15-15v-308.67c0-8.28 6.72-15 15-15h60c8.28 0 15 6.72 15 15v233.18h332v-233.18c0-8.28 6.72-15 15-15h60c8.28 0 15 6.72 15 15z" fill="#5e54ac"/></g></g></g><path d="m512 108.86v308.67c0 8.28-6.72 15-15 15h-190.76c-6.46 21.62-26.54 37.43-50.24 37.43v-127.92h166v-233.18c0-8.28 6.72-15 15-15h60c8.28 0 15 6.72 15 15z" fill="#453d81"/><g><path d="m466.65 57.04v300c0 8.28-6.71 15-15 15h-391.3c-8.29 0-15-6.72-15-15v-300c0-8.28 6.71-15 15-15h391.3c8.29 0 15 6.72 15 15z" fill="#f0f7ff"/></g><path d="m466.65 57.04v300c0 8.28-6.71 15-15 15h-195.65v-330h195.65c8.29 0 15 6.72 15 15z" fill="#dfe7f4"/><g><path d="m406.83 117.04v60c0 8.28-6.72 15-15 15h-61c-8.29 0-15-6.72-15-15v-60c0-8.28 6.71-15 15-15h61c8.28 0 15 6.72 15 15z" fill="#fabe2c"/></g><g><path d="m391.825 252.04h-61c-8.284 0-15-6.716-15-15s6.716-15 15-15h61c8.284 0 15 6.716 15 15s-6.716 15-15 15z"/></g><g><path d="m391.825 312.04h-61c-8.284 0-15-6.716-15-15s6.716-15 15-15h61c8.284 0 15 6.716 15 15s-6.716 15-15 15z"/></g><g><path d="m120.175 132.04h61c8.284 0 15-6.716 15-15s-6.716-15-15-15h-61c-8.284 0-15 6.716-15 15s6.716 15 15 15z" fill="#4793ff"/></g><g><path d="m120.175 192.04h61c8.284 0 15-6.716 15-15s-6.716-15-15-15h-61c-8.284 0-15 6.716-15 15s6.716 15 15 15z" fill="#4793ff"/></g><g><path d="m120.175 252.04h61c8.284 0 15-6.716 15-15s-6.716-15-15-15h-61c-8.284 0-15 6.716-15 15s6.716 15 15 15z" fill="#4793ff"/></g><g><path d="m120.175 312.04h61c8.284 0 15-6.716 15-15s-6.716-15-15-15h-61c-8.284 0-15 6.716-15 15s6.716 15 15 15z" fill="#4793ff"/></g><g><g><g><path d="m391.825 252.04h-61c-8.284 0-15-6.716-15-15s6.716-15 15-15h61c8.284 0 15 6.716 15 15s-6.716 15-15 15z" fill="#525cdd"/></g></g></g><g><g><g><path d="m391.825 312.04h-61c-8.284 0-15-6.716-15-15s6.716-15 15-15h61c8.284 0 15 6.716 15 15s-6.716 15-15 15z" fill="#525cdd"/></g></g></g></g></svg>