<?xml version="1.0" encoding="utf-8"?>
<!-- Designed by Vexels.com - 2020 All Rights Reserved - https://vexels.com/terms-and-conditions/  -->
<svg version="1.1" id="Layer_1" xmlns="http://www.w3.org/2000/svg" xmlns:xlink="http://www.w3.org/1999/xlink" x="0px" y="0px"
	 viewBox="0 0 1200 1200" enable-background="new 0 0 1200 1200" xml:space="preserve">
<g>
	<g>
		<g>
			<g>
				<path fill="#FF613A" d="M1135.111,1040.049c0,39.353-20.77,87.452-86.359,87.452c-65.589,0-800.733,14.758-815.491,0
					s55.751-37.167,48.099-80.893c-6.038-34.504,1.64-62.674-50.163-70.404c-3.449-4.376-5.588-8.526-5.588-12.676
					c0-19.677,806.745,0,830.795,0S1135.111,991.568,1135.111,1040.049z"/>
			</g>
		</g>
		<g>
			<g>
				<path fill="#FFFCF2" d="M892.431,1044.422c0,36.074-13.118,66.682-64.496,66.682s-588.62,0-588.62,0
					s37.672-27.329,37.672-66.682c0-39.353-48.305-71.058-45.268-67.571s567.247,5.261,593.483,5.261
					C879.86,982.112,892.431,1024.835,892.431,1044.422z"/>
			</g>
		</g>
		<g>
			<g>
				<g>
					<path fill="#FF613A" d="M1135.11,1040.049c0,39.354-20.769,87.452-86.358,87.452c-16.489,0-75.303,0.933-154.341,2.095
						c15.916-14.427,28.95-30.817,34.921-55.421c7.711-31.78-5.135-66.321-27.084-89.647c-1.463-1.554-2.966-3.025-4.504-4.422
						c-9.702-8.809-20.858-14.703-32.664-20.32c105.821,1.957,184.081,3.742,191.324,3.742
						C1080.453,963.528,1135.11,991.568,1135.11,1040.049z"/>
				</g>
			</g>
		</g>
		<g>
			<g>
				<g>
					<path fill="#1E1635" d="M892.431,1044.422c0,26.304-6.995,49.687-30.692,60.431c-1.874-6.041-3.463-12.169-4.741-18.363
						c-4.677-22.681-5.355-46.18-2.018-69.096c1.335-9.172,3.332-18.262,5.967-27.155
						C885.731,1003.596,892.431,1030.146,892.431,1044.422z"/>
				</g>
			</g>
		</g>
		<g>
			<g>
				<path fill="#1E1635" d="M232.101,976.76l-0.381,0.091c0,0,0.212,0.008,0.591,0.021
					C232.241,976.834,232.162,976.79,232.101,976.76z"/>
			</g>
			<g>
				<path fill="#1E1635" d="M825.202,982.112c-21.897,0-418.548-1.236-550.901-3.672c115.261,4.415,430.069,17.269,510.398,28.815
					c66.274,9.525,94.046,35.245,106.808,52.495c0.634-4.944,0.923-10.075,0.923-15.328
					C892.431,1024.835,879.86,982.112,825.202,982.112z"/>
			</g>
		</g>
		<g>
			<defs>
				<path id="SVGID_1_" d="M1135.11,1040.049c0,39.354-20.769,87.452-86.358,87.452c-16.489,0-75.303,0.933-154.341,2.095
					c15.916-14.427,28.95-30.817,34.921-55.421c7.711-31.78-5.135-66.321-27.084-89.647c-1.463-1.554-2.966-3.025-4.504-4.422
					c-9.702-8.809-20.858-14.703-32.664-20.32c105.821,1.957,184.081,3.742,191.324,3.742
					C1080.453,963.528,1135.11,991.568,1135.11,1040.049z"/>
			</defs>
			<use xlink:href="#SVGID_1_"  overflow="visible" fill="#FF613A"/>
			<clipPath id="SVGID_2_">
				<use xlink:href="#SVGID_1_"  overflow="visible"/>
			</clipPath>
			<g clip-path="url(#SVGID_2_)">
				<g>
					<path fill="#1E1635" d="M1119.144,1047.568c-10.688,14.82-25.358,26.319-40.737,36.186
						c-22.79,14.622-47.589,26.109-73.481,34.036c-38.284,11.72-78.646,15.623-116.804,27.748c49.621,5.1,99.691,5.831,149.44,2.181
						c17.782-1.304,35.894-3.264,52.118-10.658c25.612-11.672,43.96-36.218,52.3-63.1c4.166-13.427,6.035-27.472,6.231-41.507
						c0.104-7.415,1.876-38.728-4.776-43.309c-10.627-7.317-8.797,13.377-9.197,18.09
						C1132.989,1021.939,1127.785,1035.586,1119.144,1047.568z"/>
				</g>
			</g>
		</g>
		<g>
			<g>
				<path d="M545.309,998.452c0.659,0,1.191-0.532,1.191-1.191s-0.532-1.191-1.191-1.191H254.591
					c0.708,0.775,1.413,1.57,2.118,2.383H545.309z"/>
			</g>
			<g>
				<path d="M560.816,1010.461c0,0.659,0.532,1.191,1.191,1.191h266.445c0.659,0,1.191-0.532,1.191-1.191s-0.532-1.191-1.191-1.191
					H562.007C561.348,1009.269,560.816,1009.802,560.816,1010.461z"/>
			</g>
			<g>
				<path d="M546.07,1011.652c0.659,0,1.191-0.532,1.191-1.191s-0.532-1.191-1.191-1.191H342.843c-0.659,0-1.191,0.532-1.191,1.191
					s0.532,1.191,1.191,1.191H546.07z"/>
			</g>
			<g>
				<path d="M316.96,1010.461c0-0.659-0.532-1.191-1.191-1.191h-50.788c0.523,0.785,1.034,1.578,1.536,2.383h49.252
					C316.428,1011.652,316.96,1011.119,316.96,1010.461z"/>
			</g>
			<g>
				<path d="M543.787,1040.316c0.659,0,1.191-0.532,1.191-1.191c0-0.659-0.532-1.191-1.191-1.191H276.534
					c0.105,0.791,0.198,1.584,0.266,2.383H543.787z"/>
			</g>
			<g>
				<path d="M643.95,1061.959c0-0.659-0.532-1.191-1.191-1.191H307.184c-0.659,0-1.191,0.532-1.191,1.191
					c0,0.659,0.532,1.191,1.191,1.191h335.575C643.418,1063.151,643.95,1062.618,643.95,1061.959z"/>
			</g>
			<g>
				<path d="M891.383,1060.768H726.38c-0.659,0-1.191,0.532-1.191,1.191c0,0.659,0.532,1.191,1.191,1.191h164.631
					C891.141,1062.36,891.271,1061.569,891.383,1060.768z"/>
			</g>
			<g>
				<path d="M294.57,1061.959c0-0.659-0.532-1.191-1.191-1.191h-18.568c-0.212,0.802-0.435,1.596-0.673,2.383h19.24
					C294.038,1063.151,294.57,1062.618,294.57,1061.959z"/>
			</g>
			<g>
				<path d="M520.622,1070.333c0-0.659-0.532-1.191-1.191-1.191H272.047c-0.32,0.801-0.642,1.6-0.984,2.383h248.368
					C520.09,1071.524,520.622,1070.992,520.622,1070.333z"/>
			</g>
			<g>
				<path d="M452.449,1098.166h85.794c0.659,0,1.191-0.532,1.191-1.191c0-0.659-0.532-1.191-1.191-1.191h-85.794
					c-0.659,0-1.191,0.532-1.191,1.191C451.258,1097.633,451.791,1098.166,452.449,1098.166z"/>
			</g>
			<g>
				<path d="M562.007,1098.166h85.794c0.659,0,1.191-0.532,1.191-1.191c0-0.659-0.532-1.191-1.191-1.191h-85.794
					c-0.659,0-1.191,0.532-1.191,1.191C560.816,1097.633,561.348,1098.166,562.007,1098.166z"/>
			</g>
			<g>
				<path d="M318.567,1023.103c0-0.659-0.532-1.191-1.191-1.191h-45.428c0.345,0.788,0.675,1.582,0.99,2.383h44.438
					C318.035,1024.294,318.567,1023.762,318.567,1023.103z"/>
			</g>
			<g>
				<path d="M437.655,1096.211c0-0.659-0.532-1.191-1.191-1.191H256.082c-0.701,0.825-1.396,1.615-2.085,2.383h182.468
					C437.123,1097.402,437.655,1096.87,437.655,1096.211z"/>
			</g>
		</g>
	</g>
	<g>
		<g>
			<g>
				<path fill="#B0B0D8" d="M1037.262,882.697c0,34.567-20.77,76.816-86.359,76.816c-16.517,0-75.688-0.294-154.931,0.729
					c-235.426,3.039-649.519,8.969-660.56-0.729c-14.758-12.963,55.751-32.647,48.099-71.054
					c-7.652-38.408-55.751-55.691-55.751-72.975s806.745,0,830.795,0S1037.262,840.113,1037.262,882.697z"/>
			</g>
		</g>
		<g>
			<g>
				<path fill="#FFFCF2" d="M794.582,886.538c0,31.686-13.118,58.572-64.496,58.572c-51.378,0-588.62,0-588.62,0
					s37.672-24.005,37.672-58.572s-48.305-62.415-45.268-59.353c3.037,3.063,567.247,4.622,593.483,4.622
					C782.011,831.807,794.582,869.334,794.582,886.538z"/>
			</g>
		</g>
		<g>
			<g>
				<g>
					<path fill="#6161B2" d="M1037.261,882.697c0,34.567-20.769,76.816-86.358,76.816c-16.489,0-75.495-0.297-154.533,0.724
						c15.916-12.672,29.142-25.953,35.112-47.564c7.711-27.915-5.135-58.255-27.084-78.744c-1.463-1.365-2.966-2.657-4.504-3.884
						c-9.702-7.738-20.858-12.914-32.664-17.848c105.821,1.719,184.081,3.287,191.324,3.287
						C982.604,815.484,1037.261,840.113,1037.261,882.697z"/>
				</g>
			</g>
		</g>
		<g>
			<path fill="#1E1635" d="M727.354,831.807c-23.886,0-493.678-1.292-579.932-3.835l-0.215,0.054c0,0,454.298,9.407,553.372,22.139
				c49.188,6.321,77.387,21.847,94.002,36.406c0-0.011,0.001-0.022,0.001-0.034C794.582,869.334,782.011,831.807,727.354,831.807z"
				/>
		</g>
		<g>
			<defs>
				<path id="SVGID_3_" d="M1037.261,882.697c0,34.567-20.769,76.816-86.358,76.816c-16.489,0-75.495-0.297-154.533,0.724
					c15.916-12.672,29.142-25.953,35.112-47.564c7.711-27.915-5.135-58.255-27.084-78.744c-1.463-1.365-2.966-2.657-4.504-3.884
					c-9.702-7.738-20.858-12.914-32.664-17.848c105.821,1.719,184.081,3.287,191.324,3.287
					C982.604,815.484,1037.261,840.113,1037.261,882.697z"/>
			</defs>
			<clipPath id="SVGID_4_">
				<use xlink:href="#SVGID_3_"  overflow="visible"/>
			</clipPath>
			<g clip-path="url(#SVGID_4_)">
				<g>
					<path fill="#1E1635" d="M1036.387,906.114c-12.525,13.303-28.567,22.796-45.099,30.578
						c-24.499,11.533-50.582,19.695-77.285,24.185c-39.483,6.639-80.01,5.257-119.421,12.314
						c48.536,11.513,98.085,18.752,147.886,21.607c17.8,1.02,36.013,1.434,53.061-3.786c26.913-8.24,48.299-30.19,60.065-55.759
						c5.877-12.771,9.558-26.453,11.579-40.343c1.068-7.339,6.9-38.155,0.899-43.562c-9.584-8.637-10.463,12.119-11.473,16.739
						C1053.449,882.505,1046.513,895.359,1036.387,906.114z"/>
				</g>
			</g>
		</g>
		<g>
			<g>
				<path d="M312.657,847.593c0.659,0,1.191-0.532,1.191-1.191s-0.532-1.191-1.191-1.191H157.918
					c0.782,0.774,1.559,1.57,2.332,2.383H312.657z"/>
			</g>
			<g>
				<path d="M313.033,927.097h266.445c0.659,0,1.191-0.532,1.191-1.191s-0.532-1.191-1.191-1.191H313.033
					c-0.659,0-1.191,0.532-1.191,1.191S312.375,927.097,313.033,927.097z"/>
			</g>
			<g>
				<path d="M381.481,865.676c0.659,0,1.191-0.532,1.191-1.191s-0.532-1.191-1.191-1.191H178.251c-0.659,0-1.191,0.532-1.191,1.191
					s0.532,1.191,1.191,1.191H381.481z"/>
			</g>
			<g>
				<path d="M449.654,879.51c0-0.659-0.532-1.191-1.191-1.191H178.218c0.17,0.79,0.327,1.583,0.45,2.383h269.794
					C449.121,880.701,449.654,880.169,449.654,879.51z"/>
			</g>
			<g>
				<path d="M289,892.846c0.659,0,1.191-0.532,1.191-1.191c0-0.659-0.532-1.191-1.191-1.191H178.959
					c-0.066,0.799-0.135,1.596-0.239,2.383H289z"/>
			</g>
			<g>
				<path d="M278.775,911.097c0-0.659-0.532-1.191-1.191-1.191H173.424c-0.394,0.806-0.806,1.599-1.229,2.383h105.388
					C278.242,912.288,278.775,911.756,278.775,911.097z"/>
			</g>
			<g>
				<path d="M210.599,927.858h85.794c0.659,0,1.191-0.532,1.191-1.191s-0.532-1.191-1.191-1.191h-85.794
					c-0.659,0-1.191,0.532-1.191,1.191S209.941,927.858,210.599,927.858z"/>
			</g>
			<g>
				<path d="M195.808,925.906c0-0.659-0.532-1.191-1.191-1.191h-30.799c-0.666,0.818-1.339,1.608-2.014,2.383h32.814
					C195.275,927.097,195.808,926.565,195.808,925.906z"/>
			</g>
		</g>
	</g>
	<g>
		<g>
			<g>
				<path fill="#9683F7" d="M1037.262,656.353c-3.762-17.081-800.721,0-844.447,0s-74.334,32.795-74.334,75.427
					s28.477,80.416,62.31,80.416s828.3,18.892,847.192,0c18.892-18.892-52.471-11.548-55.751-60.74
					c-2.903-43.548,20.919-74.797,65.081-84.443C1038.353,663.395,1038.201,660.617,1037.262,656.353z"/>
			</g>
		</g>
		<g>
			<g>
				<path fill="#F2EFE6" d="M478.856,735.253c0,36.074,10.986,66.682,54.012,66.682s492.942,0,492.942,0
					s-17.505-27.904-17.505-67.258s31.55-71.15,29.007-67.663c-2.544,3.487-480.184,5.929-502.155,5.929
					C489.383,672.943,478.856,715.666,478.856,735.253z"/>
			</g>
		</g>
		<g>
			<g>
				<path fill="#FFFCF2" d="M141.619,735.253c0,36.074,9.463,66.682,46.527,66.682s358.49-0.153,358.49-0.153
					s-36.079-27.751-36.079-67.105s43.549-66.114,41.358-62.627c-2.191,3.487-342.871,0.893-361.798,0.893
					C150.687,672.943,141.619,715.666,141.619,735.253z"/>
			</g>
		</g>
		<g>
			<g>
				<path fill="#1E1635" d="M190.117,672.943c-13.383,0-23.259,4.929-30.48,12.196c124.998,3.936,261.214,9.426,310.287,15.732
					c17.949,2.307,33.071,5.85,45.89,10.114c9.369-21.045,28.506-35.411,34.396-38.568
					C524.5,675.345,208.331,672.943,190.117,672.943z"/>
			</g>
			<g>
				<path fill="#1E1635" d="M550.211,672.418c1.005-0.114,1.621-0.236,1.704-0.367C552.234,671.542,551.56,671.695,550.211,672.418z
					"/>
			</g>
		</g>
		<g>
			<g>
				<path d="M603.664,683.893c0,0.659,0.532,1.191,1.191,1.191h418.726c0.494-0.817,0.986-1.612,1.476-2.383H604.856
					C604.197,682.702,603.664,683.234,603.664,683.893z"/>
			</g>
			<g>
				<path d="M562.007,698.281h266.445c0.659,0,1.191-0.532,1.191-1.191s-0.532-1.191-1.191-1.191H562.007
					c-0.659,0-1.191,0.532-1.191,1.191S561.348,698.281,562.007,698.281z"/>
			</g>
			<g>
				<path d="M842.475,695.899c-0.659,0-1.191,0.532-1.191,1.191s0.532,1.191,1.191,1.191h174.182
					c0.361-0.808,0.729-1.598,1.101-2.383H842.475z"/>
			</g>
			<g>
				<path d="M645.205,724.566c-0.659,0-1.191,0.532-1.191,1.191s0.532,1.191,1.191,1.191h363.507
					c0.081-0.799,0.179-1.592,0.284-2.383H645.205z"/>
			</g>
			<g>
				<path d="M693.714,748.591c0,0.659,0.532,1.191,1.191,1.191h314.26c-0.088-0.787-0.168-1.583-0.244-2.383H694.905
					C694.246,747.4,693.714,747.933,693.714,748.591z"/>
			</g>
			<g>
				<path d="M680.359,747.4h-52.433c-0.659,0-1.191,0.532-1.191,1.191s0.532,1.191,1.191,1.191h52.433
					c0.659,0,1.191-0.532,1.191-1.191S681.018,747.4,680.359,747.4z"/>
			</g>
			<g>
				<path d="M664.171,756.965c0,0.659,0.532,1.191,1.191,1.191h345.001c-0.137-0.787-0.271-1.58-0.397-2.383H665.363
					C664.704,755.773,664.171,756.306,664.171,756.965z"/>
			</g>
			<g>
				<path d="M1016.824,782.413h-64.743c-0.659,0-1.191,0.532-1.191,1.191s0.532,1.191,1.191,1.191h65.63
					C1017.416,784.025,1017.12,783.229,1016.824,782.413z"/>
			</g>
			<g>
				<path d="M622.045,781.652c-0.659,0-1.191,0.532-1.191,1.191s0.532,1.191,1.191,1.191h314.054c0.659,0,1.191-0.532,1.191-1.191
					s-0.532-1.191-1.191-1.191H622.045z"/>
			</g>
		</g>
		<g>
			<g>
				<path d="M159.238,700.45h148.497c0.659,0,1.191-0.532,1.191-1.191s-0.532-1.191-1.191-1.191H160.411
					C160.004,698.855,159.613,699.649,159.238,700.45z"/>
			</g>
			<g>
				<path d="M351.776,709.905c0-0.659-0.532-1.191-1.191-1.191H155.982c-0.26,0.795-0.506,1.589-0.739,2.383h195.341
					C351.243,711.096,351.776,710.564,351.776,709.905z"/>
			</g>
			<g>
				<path d="M268.575,733.031c0-0.659-0.532-1.191-1.191-1.191H151.721c-0.04,0.825-0.064,1.617-0.075,2.383h115.739
					C268.043,734.223,268.575,733.69,268.575,733.031z"/>
			</g>
			<g>
				<path d="M218.875,751.451c0-0.659-0.532-1.191-1.191-1.191h-65.416c0.072,0.799,0.15,1.594,0.235,2.383h65.181
					C218.343,752.642,218.875,752.109,218.875,751.451z"/>
			</g>
			<g>
				<path d="M232.23,750.259c-0.659,0-1.191,0.532-1.191,1.191s0.532,1.191,1.191,1.191h52.433c0.659,0,1.191-0.532,1.191-1.191
					s-0.532-1.191-1.191-1.191H232.23z"/>
			</g>
			<g>
				<path d="M248.418,758.205c0-0.659-0.532-1.191-1.191-1.191h-94.169c0.117,0.802,0.244,1.594,0.378,2.383h93.791
					C247.885,759.396,248.418,758.864,248.418,758.205z"/>
			</g>
			<g>
				<path d="M291.736,779.082c0-0.659-0.532-1.191-1.191-1.191H158.837c0.37,0.81,0.757,1.605,1.161,2.383h130.547
					C291.203,780.273,291.736,779.741,291.736,779.082z"/>
			</g>
		</g>
	</g>
	<g>
		<g>
			<g>
				<path fill="#3B2B69" d="M687.108,268.013c-0.527,0-1.022-0.312-1.217-0.819c-12.231-31.857-40.321-48.044-67.485-63.7
					c-18.558-10.693-36.087-20.796-47.213-35.262c-7.975-10.368-10.817-22.155-13.823-34.633
					c-4.089-16.971-8.32-34.522-26.181-50.028c-16.969-14.734-38.174-9.584-38.384-9.53c-0.695,0.187-1.402-0.226-1.584-0.897
					c-0.183-0.674,0.231-1.359,0.925-1.536c0.915-0.241,22.738-5.57,40.774,10.091c18.472,16.034,22.797,33.976,26.977,51.328
					c2.943,12.214,5.724,23.753,13.374,33.701c10.819,14.063,28.133,24.041,46.46,34.603c27.552,15.877,56.04,32.295,68.593,64.983
					c0.248,0.651-0.091,1.377-0.763,1.62C687.412,267.988,687.258,268.013,687.108,268.013z"/>
			</g>
		</g>
		<g>
			<g>
				<path fill="#171B20" d="M701.356,620.091c3.274,1.479,20.274-12.698,21.986-15.872c1.711-3.174,4.836-7.792,2.827-10.966
					c-2.009-3.174-28.496,15.872-28.57,16.522C697.524,610.424,701.356,620.091,701.356,620.091z"/>
			</g>
		</g>
		<g>
			<g>
				<path fill="#F3A771" d="M475.288,880.744c0,0,43.455,113.586,51.482,130.154c8.027,16.568,7.077,43.298-18.568-0.772
					c-25.645-44.07-84.239-145.64-84.239-145.64L475.288,880.744z"/>
			</g>
		</g>
		<g>
			<g>
				<path fill="#F3A771" d="M212.684,884.589c0,0-48.81,124.52-60.821,143.77c-12.01,19.249-23.555,19.787-14.187-5.324
					c9.368-25.112,42.651-162.816,42.651-162.816L212.684,884.589z"/>
			</g>
		</g>
		<g>
			<g>
				<path fill="#FFFFFF" d="M137.021,1025.118l6.134-21.567c0,0,6.881,5.303,19.822,3.543l-12.328,25.878L137.021,1025.118z"/>
			</g>
		</g>
		<g>
			<g>
				<path fill="#FFFFFF" d="M526.703,1010.353l-10.776-26.904c0,0-6.885,7.147-17.98,9.8l12.459,20.947L526.703,1010.353z"/>
			</g>
		</g>
		<g>
			<g>
				<path fill="#1E1635" d="M137.719,1023.104c0,0,3.831,5.509,15.231,0.216c0.777-0.361,0.116,8.869-2.22,17.038
					s-37.544,49.403-73.531,46.805c-16.343-1.18-28.477-7.059-25.149-18.7c3.328-11.642,25.634-11.282,37.649-15.001
					C101.714,1049.744,127.57,1040.924,137.719,1023.104z"/>
			</g>
		</g>
		<g>
			<g>
				<g>
					<path fill="#FFFFFF" d="M137.808,1044.702c-0.365,0-0.715-0.202-0.88-0.541c-0.051-0.106-5.146-10.395-12.246-7.854
						c-0.512,0.179-1.065-0.071-1.25-0.563c-0.185-0.489,0.076-1.032,0.58-1.212c8.768-3.114,14.436,8.336,14.677,8.825
						c0.228,0.472,0.018,1.032-0.469,1.254C138.089,1044.673,137.947,1044.702,137.808,1044.702z"/>
				</g>
			</g>
			<g>
				<g>
					<path fill="#FFFFFF" d="M129.916,1048.478c-0.428,0-0.821-0.278-0.94-0.698c-0.099-0.359-2.568-8.714-11.161-7.32
						c-0.55,0.079-1.029-0.263-1.118-0.779c-0.086-0.514,0.271-0.998,0.804-1.084c10.35-1.645,13.326,8.589,13.357,8.694
						c0.139,0.501-0.167,1.018-0.687,1.153C130.086,1048.465,130,1048.478,129.916,1048.478z"/>
				</g>
			</g>
			<g>
				<g>
					<path fill="#FFFFFF" d="M122.963,1052.578c-0.464,0-0.875-0.322-0.958-0.779c-0.066-0.344-1.663-8.399-12.084-7.043
						c-0.527,0.076-1.022-0.3-1.09-0.816s0.307-0.991,0.842-1.057c12.297-1.549,14.234,8.493,14.249,8.594
						c0.091,0.514-0.264,0.998-0.791,1.089C123.075,1052.575,123.019,1052.578,122.963,1052.578z"/>
				</g>
			</g>
			<g>
				<g>
					<path fill="#FFFFFF" d="M116.43,1056.971c-0.464,0-0.875-0.322-0.958-0.779c-0.063-0.339-1.658-8.372-12.087-7.04
						c-0.517,0.071-1.022-0.297-1.09-0.816c-0.068-0.516,0.307-0.988,0.842-1.057c12.32-1.539,14.234,8.49,14.251,8.591
						c0.091,0.514-0.264,0.998-0.791,1.089C116.542,1056.968,116.486,1056.971,116.43,1056.971z"/>
				</g>
			</g>
		</g>
		<g>
			<g>
				<path fill="#1E1635" d="M511.522,1014.505c0,0,6.289,2.639,12.951-7.776c0.454-0.71,5.026,7.411,7.598,15.513
					c2.572,8.102-4.175,61.235-35.934,77.85c-14.423,7.545-27.912,8.933-31.577-2.613s15.325-22.898,23.38-32.309
					C495.994,1055.76,512.874,1034.82,511.522,1014.505z"/>
			</g>
		</g>
		<g>
			<g>
				<g>
					<path fill="#FFFFFF" d="M507.102,1032.812c-0.205,0-0.413-0.064-0.591-0.192c-0.426-0.317-0.51-0.91-0.185-1.325
						c5.663-7.207,16.794-0.524,17.265-0.236c0.454,0.278,0.591,0.86,0.304,1.303c-0.284,0.433-0.88,0.575-1.344,0.295
						c-0.099-0.062-10.104-6.057-14.675-0.216C507.685,1032.684,507.396,1032.812,507.102,1032.812z"/>
				</g>
			</g>
			<g>
				<g>
					<path fill="#FFFFFF" d="M518.525,1040.105c-0.233,0-0.469-0.081-0.654-0.246c-0.284-0.248-6.979-6-13.473-0.332
						c-0.403,0.349-1.014,0.315-1.376-0.071c-0.357-0.388-0.324-0.986,0.074-1.335c7.82-6.811,16.003,0.268,16.087,0.342
						c0.395,0.352,0.423,0.946,0.063,1.332C519.052,1040,518.788,1040.105,518.525,1040.105z"/>
				</g>
			</g>
			<g>
				<g>
					<path fill="#FFFFFF" d="M499.51,1047.492c-0.276,0-0.553-0.116-0.745-0.337c-0.345-0.401-0.292-0.995,0.119-1.33
						c9.503-7.741,16.71-0.285,16.784-0.211c0.36,0.386,0.332,0.981-0.063,1.332c-0.39,0.349-1.006,0.327-1.374-0.057
						c-0.241-0.258-6.033-6.172-14.094,0.381C499.954,1047.421,499.731,1047.492,499.51,1047.492z"/>
				</g>
			</g>
			<g>
				<g>
					<path fill="#FFFFFF" d="M496.448,1054.606c-0.276,0-0.553-0.115-0.745-0.337c-0.345-0.401-0.292-0.996,0.119-1.33
						c9.514-7.738,16.708-0.283,16.781-0.209c0.36,0.386,0.332,0.981-0.063,1.332c-0.395,0.352-1.009,0.329-1.374-0.059
						c-0.243-0.253-6.031-6.172-14.092,0.381C496.891,1054.535,496.668,1054.606,496.448,1054.606z"/>
				</g>
			</g>
		</g>
		<g>
			<g>
				<path fill="#1E1635" d="M133.424,1030.62c0,0-1.12-10.791,3.935-12.455c5.055-1.664,9.886,1.049,10.217,3.484
					c0.331,2.436-7.578,12.776-7.578,12.776L133.424,1030.62z"/>
			</g>
		</g>
		<g>
			<g>
				<path fill="#1E1635" d="M511.987,1016.505c0,0-9.301-7.552-5.879-11.909c3.422-4.357,11.058-4.803,12.801-3.272
					c4,3.513,1.212,13.642,1.212,13.642L511.987,1016.505z"/>
			</g>
		</g>
		<g>
			<defs>
				<path id="SVGID_5_" d="M137.021,1025.118l6.134-21.567c0,0,6.881,5.303,19.822,3.543l-12.328,25.878L137.021,1025.118z"/>
			</defs>
			<clipPath id="SVGID_6_">
				<use xlink:href="#SVGID_5_"  overflow="visible"/>
			</clipPath>
			<g clip-path="url(#SVGID_6_)">
				<g>
					<path fill="#FFB66F" d="M159.955,1011.783c-2.162,0-4.586-0.135-7.235-0.487c-11.324-1.507-14.487-6.18-14.614-6.376
						l1.095-0.674l-0.548,0.337l0.548-0.339c0.028,0.044,3.042,4.39,13.696,5.804c10.839,1.45,18.013-0.91,18.087-0.937l0.426,1.19
						C171.183,1010.377,166.929,1011.783,159.955,1011.783z"/>
				</g>
			</g>
			<g clip-path="url(#SVGID_6_)">
				<g>
					<path fill="#41316E" d="M158.417,1015.222c-2.165,0-4.591-0.135-7.242-0.487c-11.324-1.507-14.487-6.177-14.614-6.374
						l1.095-0.674l-0.548,0.337l0.548-0.339c0.028,0.044,3.042,4.388,13.696,5.801c10.852,1.45,18.013-0.909,18.087-0.934
						l0.426,1.19C169.636,1013.818,165.385,1015.222,158.417,1015.222z"/>
				</g>
			</g>
		</g>
		<g>
			<defs>
				<path id="SVGID_7_" d="M526.703,1010.353l-10.776-26.904c0,0-6.885,7.147-17.98,9.8l12.459,20.947L526.703,1010.353z"/>
			</defs>
			<clipPath id="SVGID_8_">
				<use xlink:href="#SVGID_7_"  overflow="visible"/>
			</clipPath>
			<g clip-path="url(#SVGID_8_)">
				<g>
					<path fill="#FFB66F" d="M494.488,998.602c-0.497,0-0.778-0.025-0.824-0.029l0.132-1.254c0.051,0.01,5.217,0.45,13.501-3.21
						c6.804-3.006,10.809-7.362,12.125-8.793c0.395-0.43,0.489-0.531,0.669-0.605l0.248,0.583l0.393,0.497
						c-0.061,0.054-0.175,0.182-0.342,0.364c-1.361,1.48-5.501,5.983-12.556,9.1C501.044,998.256,496.311,998.602,494.488,998.602z"
						/>
				</g>
			</g>
			<g clip-path="url(#SVGID_8_)">
				<g>
					<path fill="#41316E" d="M496.035,1002.041c-0.497,0-0.778-0.025-0.824-0.029l0.132-1.254c0.046,0.012,5.219,0.45,13.501-3.21
						c6.799-3.004,10.804-7.357,12.12-8.788c0.401-0.433,0.494-0.536,0.679-0.607l0.487,1.165l-0.243-0.583l0.39,0.499
						c-0.061,0.054-0.175,0.179-0.345,0.364c-1.361,1.48-5.503,5.981-12.55,9.095
						C502.59,1001.695,497.857,1002.041,496.035,1002.041z"/>
				</g>
			</g>
		</g>
		<g>
			<g>
				<path fill="#F3A771" d="M781.5,646.55c0.189-0.198,0.306-0.407,0.36-0.581c0.548-1.754-1.904-2.604-3.242-3.036
					c-4.756-1.538-9.473-2.982-14.392-3.88c-5.486-1.001-10.988-1.931-16.425-3.169c-2.318-0.527-4.737-0.087-6.835-1.49
					c-0.783-0.524-1.396-1.248-1.999-1.962c-4.452-5.279-8.125-11.127-12.182-16.698c-2.125-2.917-4.28-5.817-6.505-8.664
					l-63.464-89.788l-21.989,12.483c1.542,2.08,3.104,4.146,4.668,6.211c4.067,5.37,8.177,10.709,12.322,16.023
					c5.747,7.367,11.564,14.683,17.466,21.934c6.576,8.079,13.255,16.079,20.099,23.946c6.542,7.519,13.227,14.93,20.223,22.057
					c2.705,2.756,5.459,5.468,8.29,8.102c2.166,2.015,4.836,3.786,6.201,6.459c0.62,1.213,0.946,2.671,1.299,3.976
					c0.477,1.764,0.036,3.644,0.492,5.433c0.681,2.674,1.679,5.095,3.553,7.218c1.821,2.064,3.936,3.485,6.401,4.609
					c2.437,1.111,4.36,3.36,6.217,5.19c0.594,0.584,1.381,1.237,1.806,1.951c0.47,0.79,0.59,1.926,0.763,2.81
					c0.669-0.023,1.375-0.057,1.932-0.414c1.943-1.244,1.723-4.09,1.164-5.945c-0.399-1.325-0.913-2.703-2.012-3.58
					c-0.587-0.468-1.101-1.018-1.532-1.625c0.009-1.334-0.61-3.768-0.554-4.294c0.004-0.031,0.02-0.061,0.025-0.093
					c0.413-0.397,1-0.686,1.725-0.851c0.919-0.209,1.838-0.418,2.757-0.627c1.497,0.591,3.047,1.057,4.637,1.337
					c0.382,0.067,0.773,0.102,1.16,0.098c5.704,2.873,12.647,6.451,14.395,7.713c3.092,2.231,4.646,1.27,5.065,0.625
					c0.951-1.465-0.065-2.906-3.113-5.197c3.115,1.3,5.719,2.448,6.728,3.048c3.285,1.952,4.744,0.857,5.1,0.178
					c1-1.907-1.013-3.525-6.265-6.465c1.658,0.522,2.955,0.968,3.619,1.269c3.487,1.587,4.811,0.341,5.087-0.372
					C785.1,649.054,784.12,647.933,781.5,646.55z"/>
			</g>
		</g>
		<g>
			<g>
				<path fill="#F3A771" d="M239.056,552.917c-1.421-0.813-2.932-1.677-4.457-2.604l-29.423,58.045c0,0-32.591,57.62-6.055,32.331
					c14.752-14.058,37.226-50.127,54.286-79.399C248.836,558.452,244.121,555.813,239.056,552.917z"/>
			</g>
		</g>
		<g>
			<g>
				<path fill="#3B2B69" d="M403.59,154.206c-1.984-2.693-24.999-8.465-18.65-39.633s55.553-64.259,94.043-41.172
					c0,0,39.155-8.21,59.918,25.011c15.872,25.396,8.333,43.096,22.221,69.646c13.888,26.55,123.407,70.415,123.407,126.594
					s-23.412,109.663-92.059,109.663S439.7,346.213,439.7,346.213l5.555-126.594L403.59,154.206z"/>
			</g>
		</g>
		<g>
			<g>
				<path d="M660.842,374.992c11.798-25.041,15.662-53.469,10.569-79.579c-6.051-31.039-24.404-58.818-50.346-76.219
					c-6.91-4.634-14.401-8.574-21.643-12.387c-2.776-1.46-5.549-2.92-8.299-4.422c-27.405-14.95-43.827-30.523-51.68-49.003
					c-6.801-16.012-6.771-34.387-6.745-50.596c0-0.521-0.433-0.946-0.971-0.946c-0.003,0-0.003,0-0.003,0
					c-0.537,0-0.973,0.423-0.973,0.941c-0.025,16.388-0.056,34.96,6.893,51.318c8.028,18.896,24.718,34.76,52.526,49.932
					c2.758,1.504,5.541,2.969,8.325,4.434c7.197,3.788,14.642,7.704,21.466,12.281c25.524,17.121,43.581,44.463,49.54,75.015
					c5.454,27.974,0.459,58.646-13.662,84.807C657.596,378.79,659.263,376.93,660.842,374.992z"/>
			</g>
			<g>
				<path d="M625.079,399.442c1.212-0.399,2.397-0.827,3.567-1.273c11.307-14.107,19.405-30.988,23.226-49.075
					c5.853-27.703,1.805-57.874-11.402-84.956c-4.094-8.392-8.495-15.371-13.45-21.337c-10.279-12.372-24.001-21.577-37.274-30.481
					c-30.305-20.329-56.344-39.487-68.038-68.144c-0.198-0.487-0.766-0.718-1.262-0.531c-0.499,0.192-0.745,0.74-0.548,1.224
					c11.894,29.151,38.169,48.499,68.742,69.005c13.156,8.825,26.761,17.952,36.863,30.112c4.857,5.848,9.179,12.704,13.207,20.958
					c13.027,26.715,17.025,56.466,11.255,83.771C645.981,367.577,637.258,385.09,625.079,399.442z"/>
			</g>
			<g>
				<path d="M505.343,181.966c-0.515-0.123-1.049,0.175-1.186,0.678c-10.307,38.531,5.128,82.505,37.54,106.934
					c0.177,0.135,0.388,0.199,0.598,0.199c0.289,0,0.575-0.125,0.768-0.364c0.33-0.413,0.254-1.005-0.17-1.325
					c-31.816-23.982-46.97-67.146-36.85-104.972C506.177,182.612,505.865,182.098,505.343,181.966z"/>
			</g>
			<g>
				<path d="M524.543,283.696c0.175,0.125,0.378,0.187,0.581,0.187c0.297,0,0.591-0.133,0.781-0.381
					c0.322-0.418,0.231-1.01-0.2-1.32c-13.755-9.914-23.699-25.582-27.998-44.119c-3.587-15.452-3.349-33.212,0.702-52.788
					c0.106-0.511-0.233-1.01-0.76-1.111c-0.525-0.118-1.042,0.229-1.146,0.737c-4.107,19.84-4.342,37.865-0.697,53.575
					C500.207,257.452,510.413,273.514,524.543,283.696z"/>
			</g>
			<g>
				<path d="M580.304,350.49c-0.119-0.506-0.626-0.831-1.166-0.708c-0.525,0.118-0.852,0.624-0.73,1.131l0.976,4.085
					c0.096,0.403,0.451,0.698,0.877,0.728c0.023,0.002,0.048,0.002,0.071,0.002c0.398,0,0.758-0.234,0.905-0.597
					c8.147-19.962,9.118-42.273,2.733-62.823c-6.489-20.887-20.107-38.905-33.276-56.333c-1.442-1.908-2.882-3.813-4.309-5.72
					c-13.62-18.173-28.394-39.593-31.306-63.875c-0.061-0.516-0.522-0.887-1.077-0.828c-0.535,0.059-0.918,0.528-0.854,1.045
					c2.966,24.736,17.899,46.402,31.661,64.769c1.43,1.908,2.872,3.815,4.317,5.725c13.07,17.298,26.589,35.186,32.98,55.763
					c5.952,19.154,5.387,39.868-1.549,58.681L580.304,350.49z"/>
			</g>
			<g>
				<path d="M422.123,80.472c11.886-5.472,22.044-7.197,31.058-5.278c0.522,0.113,1.047-0.209,1.158-0.72
					c0.117-0.509-0.218-1.013-0.743-1.123c-9.44-2.011-20.016-0.238-32.31,5.415c-12.168,5.6-27.109,20.152-30.825,36.093
					c-2.266,9.727-0.139,18.564,6.322,26.265c0.193,0.231,0.474,0.349,0.755,0.349c0.215,0,0.433-0.069,0.613-0.211
					c0.418-0.329,0.482-0.924,0.142-1.327c-6.066-7.229-8.064-15.526-5.934-24.66C395.943,99.916,410.366,85.88,422.123,80.472z"/>
			</g>
		</g>
		<g>
			<g>
				<path fill="#171B20" d="M421.902,233.437c0,0,33.448-1.969,44.032-0.127c10.584,1.843,23.289,7.786,23.289,7.786l1.988,8.418
					l-21.234,21.758l-36.637-4.623c0,0-22.482-11.556-22.549-12.039s-1.668-11.238-1.668-11.238l4.22-6.923L421.902,233.437z"/>
			</g>
		</g>
		<g>
			<g>
				<path fill="#F3A771" d="M427.35,221.637c0,0,4.962,22.317-0.593,46.174c-3.141,13.487,47.418-3.078,47.22-5.772
					c-0.198-2.693-6.351-44.635-6.351-44.635L427.35,221.637z"/>
			</g>
		</g>
		<g>
			<defs>
				<path id="SVGID_9_" d="M427.35,221.637c0,0,4.962,22.317-0.593,46.174c-3.141,13.487,47.418-3.078,47.22-5.772
					c-0.198-2.693-6.351-44.635-6.351-44.635L427.35,221.637z"/>
			</defs>
			<clipPath id="SVGID_10_">
				<use xlink:href="#SVGID_9_"  overflow="visible"/>
			</clipPath>
			<g clip-path="url(#SVGID_10_)">
				<g>
					<path fill="#1E1635" d="M451.661,230.734c3.681-2.476,6.863-5.579,9.943-8.734c3.691-3.781,7.468-8.103,7.758-13.303
						c-1.932-0.819-4.057,0.441-5.909,1.419c-4.953,2.616-10.669,3.418-16.209,4.441c-7.598,1.403-15.112,3.301-22.344,5.962
						c-3.622,1.333-7.425,3.075-9.269,6.378c-4.722,8.46,5.596,9.533,11.039,9.98C435.473,237.602,444.349,235.653,451.661,230.734z
						"/>
				</g>
			</g>
		</g>
		<g>
			<g>
				<path fill="#FF613A" d="M200.073,609.228c-2.649-16.699,60.077-139.125,73.343-163.802
					c19.409-36.103,55.716-146.871,75.415-165.845c8.833-8.507,20.914-13.188,32.525-17.23c5.935-2.066,11.979-3.673,18.055-5.282
					c2.353-0.623,4.596-1.824,6.998-1.28c3.131,0.709,6.25,3.893,8.74,5.728c9.135,6.732,20.365,11.68,31.786,10.619
					c5.834-0.542,11.398-2.614,16.732-4.969c5.256-2.32,10.373-4.935,15.318-7.827c2.936-1.717,6.234-3.894,9.772-4.099
					c3.275-0.19,7.052,0.947,10.297,1.473c7.808,1.265,15.59,2.719,23.287,4.519c11.847,2.77,25.619,5.979,35.21,13.73
					c23.808,19.239,61.902,156.992,80.948,189.314s92.853,128.518,88.091,130.057s-26.189,17.7-24.602,25.396
					s-59.918-65.798-79.758-98.12c-19.84-32.322-71.028-130.442-71.028-130.442s7.986,54.014,7.192,71.714
					c-0.794,17.7-73.856,52.956-73.856,52.956s-71.425-30.783-70.632-33.091s-40.474-54.639-44.442-107.74
					c0,0-47.617,70.8-69.044,99.274s-63.487,149.19-67.455,149.96C228.997,625.012,201.66,619.233,200.073,609.228z"/>
			</g>
		</g>
		<g>
			<g>
				<path d="M717.024,576.959c-7.975,2.523-15.482,7.913-21.319,15.51c-3.29,4.282-5.867,8.979-7.995,13.748
					c0.478,0.54,0.945,1.068,1.406,1.584c2.143-4.94,4.772-9.808,8.151-14.206c5.721-7.446,13.092-12.651,20.875-14.977
					C717.781,578.08,717.402,577.519,717.024,576.959z"/>
			</g>
			<g>
				<path d="M247.712,608.567c0.37-0.67,0.749-1.36,1.137-2.069c-3.682,0.663-7.487,0.609-11.13-0.199
					c-5.593-1.239-10.686-4.236-14.498-6.709c-5.936-3.854-10.522-7.893-13.762-12.083c-0.23,0.772-0.427,1.493-0.638,2.236
					c3.304,3.968,7.707,7.789,13.307,11.425c3.949,2.56,9.236,5.668,15.136,6.976C240.68,608.901,244.231,609.022,247.712,608.567z"
					/>
			</g>
		</g>
		<g>
			<path fill="#1E1635" d="M430.609,450.054c-28.411-28.028-47.078-65.187-52.321-104.159c0.435,3.236-8.824,15.252-10.248,19.291
				c-2.207,6.258-3.33,12.803-4.925,19.223c3.948-5.832,6.349-9.402,6.349-9.402c3.968,53.1,45.236,105.431,44.442,107.74
				c-0.396,1.151,17.146,9.373,34.844,17.333c0.87-0.383,1.738-0.767,2.595-1.152c1.978-0.887,4.05-1.847,5.304-3.576
				c1.49-2.053,1.521-4.776,1.176-7.264C455.667,472.492,441.985,461.276,430.609,450.054z"/>
		</g>
		<g>
			<g>
				<path fill="#3B2B69" d="M439.898,476.591c0,0,151.977,5.195,71.624,82.536c-37.447,36.043-22.42,69.069-33.53,76.764
					s-127.573,19.239-185.507,13.083c0,0-7.738,70.608-27.975,123.708c-19.639,51.53-69.441,172.576-74.996,179.502
					c-5.555,6.926-38.292-8.081-44.641-12.698c-6.349-4.617,60.91-244.338,60.91-292.821c0-50.792,63.489-78.496,63.489-78.496
					L439.898,476.591z"/>
			</g>
		</g>
		<g>
			<path fill="#1E1635" d="M313.263,650.383c13.468,0.502,28.502,0.412,43.862-0.104c19.632-28.672,59.637-42.253,74.759-73.743
				c2.515-5.236,4.259-11.079,3.216-16.766c-2.516-13.729-18.979-19.95-33.12-22.483c-22.982-4.117-46.549-5.032-69.813-2.874
				l-62.894,33.757c0,0-5.368,2.351-12.962,6.908c4.764,3.265,11.885,4.607,17.32,5.48c4.012,0.644,7.672,1.632,11.04,3.008
				c7.753,3.169,13.95,8.395,19.291,16.216c6.14,8.993,9.609,19.507,11.393,30.152c0.918,5.479,1.198,10.833-0.314,16.233
				C314.65,647.557,313.977,648.963,313.263,650.383z"/>
		</g>
		<g>
			<g>
				<path fill="#3B2B69" d="M558.345,476.591c0,0,50.791,36.17,57.14,86.961c6.349,50.792-7.936,64.644-19.047,72.339
					c-11.111,7.696-117.455,24.049-175.388,17.892c0,0,21.428,45.405,32.538,99.274c11.111,53.87,51.585,183.542,46.03,190.468
					c-5.555,6.926-30.157,16.353-36.506,11.736c-6.349-4.617-138.882-260.114-138.882-308.597c0-50.792,63.489-78.496,63.489-78.496
					L558.345,476.591z"/>
			</g>
		</g>
		<g>
			<g>
				<path fill="#B0B0D8" d="M480.174,579.713c1.19-0.385,80.552-41.557,80.155-47.713c-0.397-6.157-2.381-12.698-4.762-13.083
					c-2.381-0.385-113.09-8.081-113.09-8.081l1.19,34.631L480.174,579.713z"/>
			</g>
		</g>
		<g>
			<path fill="#FFFFFF" d="M480.174,579.713c1.191-0.385,80.553-41.557,80.155-47.713c-0.376-5.843-2.183-12.022-4.402-12.966
				c-17.202,9.794-34.403,19.588-51.605,29.382c-8.676,4.94-17.23,10.382-26.292,14.603c-3.409,1.589-6.947,3.406-9.231,6.023
				L480.174,579.713z"/>
		</g>
		<g>
			<g>
				<path fill="#3B2B69" d="M403.789,468.703c-0.176-3.361,69.838,26.742,154.953-9.62c0,0,11.507,11.351,6.547,25.011
					c-4.96,13.66-61.505,19.047-92.456,18.47S405.574,502.756,403.789,468.703z"/>
			</g>
		</g>
		<g>
			<g>
				<path fill="#F3A771" d="M395.564,149.336c1.167-12.116-3.576-20.364-1.346-27.743c3.884-12.853,13.162-22.616,25.451-28.145
					c13.383-6.022,29.08-9.618,42.798-4.353c8.262,3.171,14.96,9.239,21.019,15.542c6.818,7.092,13.108,14.662,18.806,22.63
					c4.035,5.643,7.887,11.814,8.308,18.669c0.26,4.244-0.256,8.146,0.975,12.288c0.988,3.323,0.767,4.537-0.968,7.661
					c-2.83,5.098-5.695,10.178-8.542,15.267c-2.811,5.024-5.622,10.048-8.433,15.072c-1.158,2.069-2.186,5.044-3.813,6.815
					c-0.002,0.002-21.415,23.313-49.728,26.187c-22.028,2.236-53.703-21.218-56.265-44.952
					C381.264,160.538,394.397,161.451,395.564,149.336z"/>
			</g>
		</g>
		<g>
			<g>
				<path fill="#3B2B69" d="M484.341,165.661c-0.177,0-0.355-0.034-0.525-0.108c-55.949-24.026-40.171-78.301-40.004-78.847
					c0.203-0.666,0.915-1.04,1.612-0.851c0.687,0.197,1.08,0.895,0.877,1.563c-0.649,2.141-15.273,52.712,38.564,75.833
					c0.657,0.28,0.953,1.025,0.662,1.659C485.314,165.381,484.838,165.661,484.341,165.661z"/>
			</g>
		</g>
		<g>
			<g>
				<path fill="#FFFFFF" d="M440.31,180.983c0,0-11.422,4.882-24.317,6.167c0,0,5.579,12.096,15.879,8.476
					C442.172,192.006,440.31,180.983,440.31,180.983z"/>
			</g>
		</g>
		<g>
			<g>
				<ellipse cx="453.266" cy="159.984" rx="4.002" ry="3.88"/>
			</g>
		</g>
		<g>
			<g>
				<ellipse cx="402.63" cy="155.647" rx="4.002" ry="3.88"/>
			</g>
		</g>
		<g>
			<g>
				<path fill="#D67951" d="M424.273,155.629c0,0-0.494,4.003-3.987,5.974s-5.956,0.605-7.279,3.793
					c-1.323,3.188,4.417,9.163,10.808,5.73C430.207,167.692,424.273,155.629,424.273,155.629z"/>
			</g>
		</g>
		<g>
			<g>
				<path fill="#3B2B69" d="M450.351,128.109c1.649,4.241,3.7,8.378,6.401,11.746c3.054,3.808,6.212,7.551,9.686,11.009
					c3.371,3.356,7.584,5.367,11.027,8.668c7.532,7.22,9.909,18.033,10.884,28.26c0.083,0.87,0.188,1.809,0.796,2.453
					c1.306,1.383,3.65,0.415,5.264-0.616c4.274-2.729,8.548-5.458,12.822-8.187c3.085-1.97,6.209-3.972,8.659-6.653
					c1.979-2.166,3.44-4.703,4.757-7.284c0.894-1.753,2.723-3.872,3.022-5.753c1.434-9.016-0.887-18.173-3.606-26.907
					c-3.855-12.381-8.649-24.697-16.579-35.096c-7.929-10.398-19.367-18.787-32.519-20.93c-6.887-1.12-14.158,1.246-21.032,2.067
					c-8.206,0.981-16.323,2.656-24.229,5.004c-5.483,1.628-10.903,3.598-15.78,6.522c-3.225,1.934-6.211,4.298-8.543,7.198
					c-2.062,2.564-6.69,7.582-8.391,10.384c-12.416,20.466-4.082,24.368,1.473,27.409c2.976-14.622,12.723-20.206,22.174-26.607
					c7.778-5.268,17.656-11.672,27.168-13.061c1.091,7.377,1.5,14.554,3.665,21.801C448.297,122.303,449.231,125.23,450.351,128.109
					z"/>
			</g>
		</g>
		<g>
			<g>
				<path fill="#42210B" d="M466.897,142.018c-0.146-3.169-8.591-9.871-16.821-6.493c-8.23,3.377,3.662,5.393,6.568,6.378
					C459.551,142.888,467.048,145.305,466.897,142.018z"/>
			</g>
		</g>
		<g>
			<g>
				<path fill="#42210B" d="M389.878,136.092c0.668-3.105,10.111-8.408,17.677-3.795s-4.506,4.754-7.537,5.274
					S389.185,139.313,389.878,136.092z"/>
			</g>
		</g>
		<g>
			<g>
				<path fill="#F3A771" d="M479.022,200.168c0,0,12.075,11.798,28.717,6.607c16.642-5.191,20.784-24.686,19.203-29.865
					c-1.582-5.178-12.812-15.657-23.166-12.427c-10.355,3.23-20.416,17.185-20.416,17.185L479.022,200.168z"/>
			</g>
		</g>
		<g>
			<g>
				<g>
					<path fill="#42210B" d="M499.964,188.347c-0.167,0-0.337-0.034-0.497-0.106c-0.608-0.265-0.877-0.959-0.601-1.546
						c6.844-14.643,17.603-11.303,17.709-11.266c0.631,0.206,0.971,0.868,0.755,1.48c-0.213,0.612-0.902,0.941-1.521,0.735
						c-0.388-0.116-8.849-2.601-14.748,10.014C500.861,188.091,500.423,188.347,499.964,188.347z"/>
				</g>
			</g>
			<g>
				<g>
					<path fill="#42210B" d="M511.442,186.267c-0.035,0-0.071-0.002-0.106-0.005c-0.664-0.057-1.156-0.624-1.098-1.266
						c0.317-3.52-2.821-6.281-2.854-6.308c-0.497-0.43-0.54-1.17-0.096-1.652c0.441-0.482,1.204-0.526,1.703-0.093
						c0.165,0.145,4.071,3.581,3.65,8.254C512.585,185.808,512.058,186.267,511.442,186.267z"/>
				</g>
			</g>
		</g>
		<g>
			<g>
				<path fill="#F3A771" d="M203.014,637.559c0.197-0.513,0.564-0.955,0.902-1.399c1.437-1.892,2.463-4.075,2.992-6.361
					c-2.406,0.001-4.815,0.175-7.199,0.52c-0.961,0.139-1.93,0.309-2.817,0.7c-2.782,1.224-4.467,4.057-6.349,6.228
					c-2.088,2.409-4.391,4.642-6.877,6.664c-1.895,1.541-4.318,2.136-6.523,3.173c-1.199,0.564-2.454,1-3.707,1.436
					c-3.871,1.347-7.894,2.473-11.52,4.393c-6.122,3.242-8.539,4.932-7.709,6.953c-2.196,1.699-2.897,2.933-2.139,4.237
					c0.093,0.161,0.256,0.341,0.487,0.495c-2.05,1.962-2.636,3.28-1.723,4.507c0.198,0.266,0.622,0.561,1.258,0.64
					c-0.445,0.838-0.424,1.559,0.076,2.262c0.453,0.638,2.079,1.544,5.134-0.886c2.334-1.856,14.125-8.48,19.575-11.512
					c1.202-0.267,2.277-0.905,3.445-1.29c1.337-0.44,2.725-0.729,4.126-0.856c1.04-0.094,2.287,0.001,2.809,0.873
					c0.352,0.587,0.239,1.327,0.116,2.001c-0.296,1.617-0.381,2.837-1.546,4.111c-0.969,1.06-1.268,2.532-1.458,3.932
					c-0.268,1.96-0.035,4.865,2.123,5.81c0.619,0.271,1.336,0.193,2.015,0.109c0.033-0.919-0.027-2.084,0.322-2.956
					c0.315-0.788,1.005-1.572,1.51-2.256c0.694-0.939,1.622-1.807,2.17-2.826c0.495-0.919,1.058-1.712,1.808-2.476
					c1.108-1.129,2.587-1.926,3.583-3.142c2.846-3.473,5.676-6.435,6.192-11.077c0.353-3.17-0.198-6.36-0.964-9.447
					c-0.196-0.79-0.406-1.625-0.164-2.409C202.977,637.659,202.995,637.609,203.014,637.559z"/>
			</g>
		</g>
		<g>
			<g>
				<path fill="#FFFFFF" d="M239.511,572.979c7.188,6.166,227.965,10.966,242.25,6.926s-1.19-43.288-7.738-81.959
					c-6.547-38.671-16.666-90.617-19.047-95.811c-2.381-5.195-3.571-17.892-42.26-16.738s-173.801-8.658-186.301-6.926
					c-12.499,1.732-43.45-4.04-35.713,31.168C198.441,444.846,234.352,568.554,239.511,572.979z"/>
			</g>
		</g>
		<g>
			<g>
				
					<ellipse transform="matrix(0.5177 -0.8556 0.8556 0.5177 -253.6874 524.7016)" fill="#B0B0D8" cx="338.553" cy="487.365" rx="19.798" ry="28.32"/>
			</g>
		</g>
		<g>
			<g>
				<path fill="#4F4078" d="M472.173,179.697c-1.062,11.982,6.152,32.465,23.839,33.939c17.687,1.475,32.934-13.585,34.642-32.85
					s-7.611-38.03-20.937-39.141C496.392,140.534,474.611,152.209,472.173,179.697z"/>
			</g>
		</g>
		<g>
			<defs>
				<path id="SVGID_11_" d="M472.173,179.697c-1.062,11.982,6.152,32.465,23.839,33.939c17.687,1.475,32.934-13.585,34.642-32.85
					s-7.611-38.03-20.937-39.141C496.392,140.534,474.611,152.209,472.173,179.697z"/>
			</defs>
			<clipPath id="SVGID_12_">
				<use xlink:href="#SVGID_11_"  overflow="visible"/>
			</clipPath>
			<g clip-path="url(#SVGID_12_)">
				<g>
					<path fill="#FFFFFF" d="M505.059,215.342c-0.378-0.017-9.293-0.482-16.112-8.014c-5.871-6.485-8.287-16.069-7.187-28.49
						c1.397-15.739,9.022-24.077,15.174-28.298c6.768-4.651,13.377-5.479,13.947-5.491l-0.094,2.053
						c-0.243,0.01-24.335,2.844-26.913,31.914c-1.049,11.821,1.186,20.879,6.639,26.926c6.206,6.878,14.556,7.342,14.639,7.345
						L505.059,215.342z"/>
				</g>
			</g>
		</g>
		<g>
			<g>
				<path fill="#FFFFFF" d="M515.925,148.711c-7.268-0.606-25.173,8.631-27.027,29.54c-1.854,20.91,5.993,31.505,20.046,32.676
					c14.052,1.172,23.673-16.487,24.714-28.234S530.947,149.963,515.925,148.711z"/>
			</g>
		</g>
		<g>
			<g>
				<path fill="#FFFFFF" d="M508.802,150.878c0,0-5.28-6.502-4.695-9.439c2.935-14.745,4.04-24.004-5.731-41.8
					c-9.833-17.908-23.964-30.12-23.964-30.12s-1.613-1.654,12.278-0.495c13.891,1.158,29.395,18.616,34.554,36.7
					c4.391,15.395,4.018,30.188-3.543,40.225l0.739,5.429L508.802,150.878z"/>
			</g>
		</g>
		<g>
			<g>
				<path fill="#3B2B69" d="M475.808,77.738c-0.684,0-1.257-0.519-1.295-1.187c-0.013-0.199-1.306-19.904-14.107-23.094
					c-13.217-3.296-26.318,3.291-26.45,3.358c-0.639,0.322-1.422,0.086-1.752-0.526c-0.337-0.615-0.094-1.374,0.537-1.699
					c0.573-0.293,14.084-7.116,28.313-3.572c14.639,3.65,15.998,24.505,16.049,25.393c0.041,0.693-0.507,1.286-1.222,1.325
					C475.857,77.738,475.831,77.738,475.808,77.738z"/>
			</g>
		</g>
		<g>
			<path fill="#1E1635" d="M551.392,392.469c-5.393-13.017-11.088-25.918-17.294-38.59c-0.792-1.617-1.893-3.438-3.728-3.637
				c0.632,0.068,7.815,41.463,9.487,46.381c3.945,11.601,10.915,21.924,16.3,32.928C554.36,413.279,552.058,397.074,551.392,392.469
				z"/>
		</g>
		<g>
			<g>
				<path fill="#1E1635" d="M423.8,284.633c11.771,5.753,25.512,6.491,38.638,5.307c9.143-0.825,18.576-2.682,25.861-8.104
					c7.284-5.422,11.755-15.235,8.389-23.52c-1.396-3.435-4.714-6.635-8.487-6.14c-1.924,0.253-3.573,1.409-5.151,2.505
					c-9.446,6.558-19.816,12.317-31.247,14.329c-8.305,1.462-16.963,0.749-24.962-1.822c-3.82-1.228-7.496-2.883-10.921-4.933
					c-2.644-1.583-7.107-6.998-9.779-7.623c-7.065-1.653-1.178,11.364,0.98,14.984C410.957,276.054,416.976,281.298,423.8,284.633z"
					/>
			</g>
		</g>
		<g>
			<g>
				<path fill="#FF613A" d="M421.902,233.437c2.143-0.458-5.046,2.316-7.546,5.974c-1.751,2.562-13.89,15.406,30.703,20.164
					c24.478,2.612,44.413-12.03,44.164-18.478c0,0,10.341,1.817,7.534,20.07c0,0-9.261,25.414-52.883,22.9
					c-32.614-1.88-37.121-16.567-37.121-16.567s-6.148-8.505-5.401-15.086C402.099,245.834,408.1,236.389,421.902,233.437z"/>
			</g>
		</g>
		<g>
			<g>
				<g>
					<path d="M489.137,922.353c-0.441,0-0.842-0.293-0.948-0.728c-21.23-87.421-52.184-173.643-82.122-257.027
						c-0.885-2.461-1.985-5.523-4.284-7.259c-1.397-1.057-3.136-1.583-4.976-2.139c-1.219-0.369-2.482-0.75-3.671-1.305
						c-2.183-1.015-3.952-2.979-4.512-5.007c-0.383-1.389-0.175-2.704,0.603-3.805c0.167-0.236,0.436-0.386,0.73-0.408l14.061-1.03
						c-2.226-5.981-6.583-11.293-12.104-14.705c-0.276-0.17-0.446-0.462-0.451-0.779s0.152-0.615,0.421-0.794
						c3.017-2.013,6.986-2.694,10.908-1.861c3.909,0.831,7.225,3.058,9.095,6.111c0.274,0.447,0.122,1.028-0.34,1.293
						c-0.456,0.27-1.057,0.123-1.333-0.329c-1.597-2.603-4.454-4.511-7.841-5.231c-2.857-0.607-5.737-0.295-8.114,0.848
						c5.62,3.881,9.955,9.641,12.011,16.015c0.086,0.275,0.041,0.575-0.124,0.814c-0.167,0.238-0.436,0.388-0.733,0.411
						l-14.796,1.084c-0.264,0.556-0.302,1.187-0.112,1.88c0.406,1.47,1.835,3.031,3.473,3.793c1.062,0.494,2.203,0.838,3.407,1.202
						c1.927,0.583,3.919,1.185,5.595,2.453c2.75,2.077,3.957,5.432,4.928,8.129c29.95,83.429,60.925,169.697,82.178,257.214
						c0.122,0.506-0.203,1.015-0.725,1.136C489.284,922.346,489.211,922.353,489.137,922.353z"/>
				</g>
			</g>
			<g>
				<g>
					<path d="M427.713,625.986c-0.479,0-0.895-0.342-0.963-0.814c-0.076-0.516,0.297-0.993,0.829-1.064
						c44.151-6.018,88.695-13.289,132.4-21.614c9.288-1.77,18.097-3.852,23.803-9.84c3.26-3.419,4.827-8.862,3.901-13.544
						c-0.677-3.427-2.611-6.04-5.445-7.355c-0.327-0.15-0.54-0.467-0.553-0.819c-0.013-0.352,0.18-0.681,0.497-0.855l8.855-4.833
						c-5.024-2.743-10.297-5.133-15.696-7.106c-0.428-0.155-0.687-0.578-0.621-1.015c0.063-0.44,0.433-0.774,0.89-0.809
						c5.465-0.403,9.143-5.666,9.83-10.415c0.768-5.329-1.224-10.835-3.273-15.516c-6.715-15.319-16.819-29.475-29.24-40.967
						c-3.856,0.617-8.114,1.502-12.611,2.436c-11.907,2.473-25.398,5.285-35.869,3.881c-0.532-0.069-0.905-0.546-0.831-1.062
						s0.575-0.892,1.095-0.806c10.127,1.34,23.446-1.421,35.198-3.859c4.707-0.978,9.156-1.903,13.184-2.529
						c0.286-0.042,0.603,0.044,0.824,0.246c12.773,11.728,23.162,26.223,30.042,41.923c2.155,4.919,4.246,10.727,3.409,16.514
						c-0.654,4.53-3.731,9.471-8.441,11.317c5.019,1.986,9.909,4.321,14.573,6.959c0.299,0.172,0.484,0.484,0.482,0.823
						c-0.003,0.339-0.193,0.649-0.497,0.816l-8.865,4.84c2.563,1.718,4.307,4.444,4.979,7.836
						c1.052,5.324-0.669,11.283-4.385,15.181c-6.104,6.403-15.243,8.579-24.858,10.41c-43.738,8.331-88.32,15.609-132.506,21.629
						C427.802,625.983,427.756,625.986,427.713,625.986z"/>
				</g>
			</g>
		</g>
		<g>
			<g>
				<g>
					<path d="M193.062,917.103c-0.094,0-0.19-0.012-0.286-0.042c-0.512-0.152-0.801-0.681-0.644-1.18
						c17.39-54.917,35.375-111.707,51.459-168.198c6.852-24.07,12.523-45.82,12.49-68.287l-0.015-2.227
						c-0.048-5.047-0.099-10.265,1.686-15.125c1.962-5.329,7.126-10.538,13.339-10.538c0.025,0,0.053,0,0.081,0
						c0.193-0.359,0.233-0.747,0.127-1.197c-0.33-1.389-2.069-3.078-4.041-3.931c-2.033-0.878-7.432-3.208-6.548-7.308
						c0.492-2.269,2.657-3.491,4.92-4.474c12.071-5.226,23.866-9.665,35.431-6.632c0.52,0.138,0.826,0.656,0.687,1.158
						c-0.142,0.504-0.69,0.799-1.194,0.666c-10.953-2.883-22.394,1.445-34.128,6.534c-1.795,0.777-3.498,1.694-3.81,3.137
						c-0.385,1.777,1.344,3.429,5.432,5.194c2.094,0.905,4.598,2.93,5.146,5.233c0.279,1.175,0.01,2.276-0.778,3.188
						c-0.195,0.231-0.471,0.396-0.804,0.334c-5.473-0.332-10.244,4.422-12.026,9.27c-1.671,4.543-1.622,9.592-1.574,14.471
						l0.015,2.242c0.033,22.706-5.668,44.591-12.561,68.793c-16.092,56.517-34.08,113.32-51.474,168.252
						C193.863,916.842,193.477,917.103,193.062,917.103z"/>
				</g>
			</g>
		</g>
		<g>
			<g>
				<path d="M481.078,571.934c-0.466,0-0.877-0.324-0.958-0.784l-21.659-122.703c-3.731-21.128-8.277-41.149-22.764-53.939
					c-0.395-0.352-0.426-0.949-0.063-1.335c0.365-0.383,0.981-0.411,1.376-0.061c14.941,13.193,19.58,33.551,23.367,55.016
					l21.659,122.703c0.091,0.514-0.264,1.003-0.793,1.089C481.188,571.929,481.132,571.934,481.078,571.934z"/>
			</g>
		</g>
		<g>
			<g>
				<g>
					<path d="M481.008,140.295c-0.205,0-0.413-0.061-0.588-0.192c-19.811-14.582-29.649-41.157-23.927-64.624
						c0.124-0.509,0.664-0.821,1.171-0.703c0.525,0.12,0.847,0.629,0.725,1.136c-5.552,22.767,3.993,48.543,23.207,62.687
						c0.428,0.315,0.512,0.907,0.188,1.322C481.591,140.168,481.302,140.295,481.008,140.295z"/>
				</g>
			</g>
			<g>
				<g>
					<path d="M487.155,133.939c-0.066,0-0.132-0.007-0.2-0.02c-5.151-1.045-8.637-5.577-11.098-9.41
						c-10.806-16.823-14.682-34.264-10.915-49.109c0.129-0.504,0.654-0.806,1.179-0.691c0.522,0.125,0.842,0.637,0.712,1.143
						c-3.64,14.346,0.152,31.27,10.677,47.658c2.396,3.731,5.44,7.667,9.846,8.559c0.525,0.106,0.862,0.607,0.753,1.118
						C488.012,133.634,487.606,133.939,487.155,133.939z"/>
				</g>
			</g>
		</g>
		<g>
			<path d="M496.954,73.186c-0.163,0-0.326-0.063-0.45-0.188c-4.83-4.851-14.294-4.783-20.292-1.938
				c-0.317,0.151-0.696,0.014-0.846-0.301c-0.151-0.317-0.015-0.696,0.301-0.846c6.391-3.031,16.517-3.055,21.737,2.19
				c0.247,0.248,0.247,0.651-0.002,0.898C497.278,73.124,497.116,73.186,496.954,73.186z"/>
		</g>
	</g>
</g>
</svg>
